<?xml version="1.0" encoding="UTF-8"?>
<!DOCTYPE svg PUBLIC "-//W3C//DTD SVG 1.1//EN" "http://www.w3.org/Graphics/SVG/1.1/DTD/svg11.dtd">
<svg version="1.1" xmlns="http://www.w3.org/2000/svg" xmlns:xlink="http://www.w3.org/1999/xlink" x="0" y="0" width="106" height="106" viewBox="0, 0, 106, 106">
  <g id="Background">
    <rect x="0" y="0" width="106" height="106" fill="#FFFFFF"/>
  </g>
  <g id="Verus_Logo">
    <g id="circles">
      <path d="M53,13 C39.816,13.027 27.492,19.548 20.055,30.434 C20.419,30.68 20.742,31.001 20.977,31.408 C21.805,32.843 21.314,34.677 19.879,35.506 C18.976,36.027 17.914,36.026 17.045,35.596 C14.402,41.018 13.019,46.968 13,53 C13.053,73.862 29.129,91.18 49.93,92.781 C49.965,92.353 50.083,91.926 50.312,91.529 C51.141,90.094 52.975,89.603 54.41,90.432 C55.298,90.944 55.824,91.842 55.9,92.793 C76.772,91.276 92.947,73.927 93,53 C92.999,47.02 91.657,41.116 89.072,35.723 C88.662,35.933 88.204,36.062 87.711,36.062 C86.054,36.062 84.711,34.719 84.711,33.062 C84.711,32.003 85.263,31.077 86.092,30.543 C78.65,19.573 66.256,13.003 53,13 z M53,22 C70.121,22 84,35.879 84,53 C84,70.121 70.121,84 53,84 C35.879,84 22,70.121 22,53 C22,35.879 35.879,22 53,22 z" fill="#9F9F9F" id="Inner_Circle"/>
      <path d="M53,5.6 C26.821,5.599 5.599,26.821 5.6,53 C5.599,79.179 26.821,100.401 53,100.4 C79.179,100.401 100.401,79.179 100.4,53 C100.401,26.821 79.179,5.599 53,5.6 z M53,14 C65.979,14.001 78.108,20.46 85.354,31.229 C85.902,30.524 86.749,30.062 87.711,30.062 C89.368,30.062 90.711,31.406 90.711,33.062 C90.711,34.587 89.57,35.832 88.098,36.023 C90.662,41.316 91.996,47.119 92,53 C91.938,73.47 76.06,90.409 55.637,91.793 C56.021,92.644 56.012,93.659 55.51,94.529 C54.681,95.964 52.845,96.455 51.41,95.627 C50.056,94.845 49.557,93.172 50.199,91.779 C29.846,90.314 14.063,73.406 14,53 C14.015,47.061 15.387,41.204 18.01,35.875 C17.11,35.762 16.268,35.255 15.779,34.408 C14.951,32.973 15.444,31.139 16.879,30.311 C18.22,29.536 19.899,29.925 20.791,31.148 C28.026,20.452 40.087,14.031 53,14 z" fill="#525252" id="Outer_Circle"/>
      <path d="M53.006,0.244 C51.875,0.244 50.745,0.283 49.615,0.355 L43.73,10.551 L62.27,10.551 L56.385,0.357 C55.26,0.285 54.133,0.244 53.006,0.244 z M31.548,4.803 C30.514,5.263 29.498,5.758 28.495,6.284 L27.266,17.991 L44.202,10.45 L34.68,3.532 C33.623,3.924 32.577,4.344 31.548,4.803 z M13.799,17.695 C13.042,18.536 12.314,19.401 11.613,20.289 L15.252,31.485 L27.657,17.707 L16.144,15.26 C15.337,16.048 14.553,16.858 13.799,17.695 z M2.828,36.692 C2.478,37.768 2.166,38.854 1.886,39.951 L9.764,48.698 L15.493,31.067 L3.98,33.513 C3.563,34.561 3.176,35.62 2.828,36.692 z M0.533,58.509 C0.651,59.633 0.807,60.753 0.998,61.869 L11.752,66.656 L9.814,48.218 L0.292,55.136 C0.338,56.263 0.415,57.388 0.533,58.509 z M7.309,79.373 C7.875,80.352 8.473,81.312 9.101,82.254 L20.873,82.252 L11.603,66.197 L5.718,76.39 C6.218,77.401 6.746,78.397 7.309,79.373 z M21.986,95.677 C22.901,96.342 23.838,96.975 24.795,97.58 L35.548,92.791 L20.55,81.894 L19.319,93.599 C20.187,94.319 21.074,95.014 21.986,95.677 z M42.026,104.602 C43.132,104.837 44.246,105.034 45.365,105.198 L53.241,96.449 L35.107,92.594 L38.744,103.788 C39.83,104.093 40.923,104.367 42.026,104.602 z M63.963,104.604 C65.069,104.369 66.167,104.096 67.256,103.79 L70.893,92.594 L52.759,96.449 L60.634,105.196 C61.75,105.033 62.86,104.839 63.963,104.604 z M84.004,95.684 C84.919,95.019 85.811,94.323 86.682,93.601 L85.45,81.894 L70.452,92.791 L81.204,97.578 C82.157,96.975 83.093,96.346 84.004,95.684 z M98.685,79.383 C99.251,78.404 99.782,77.405 100.284,76.391 L94.397,66.197 L85.127,82.252 L96.897,82.253 C97.523,81.314 98.121,80.359 98.685,79.383 z M105.466,58.52 C105.585,57.396 105.664,56.267 105.71,55.137 L96.186,48.218 L94.248,66.656 L105,61.869 C105.19,60.757 105.348,59.641 105.466,58.52 z M103.176,36.703 C102.826,35.627 102.44,34.565 102.022,33.513 L90.507,31.067 L96.236,48.698 L104.112,39.952 C103.833,38.859 103.524,37.775 103.176,36.703 z M92.209,17.704 C91.452,16.863 90.667,16.049 89.858,15.259 L78.343,17.707 L90.748,31.485 L94.386,20.291 C93.687,19.406 92.963,18.541 92.209,17.704 z M74.463,4.808 C73.43,4.347 72.382,3.923 71.32,3.53 L61.798,10.45 L78.734,17.991 L77.504,6.285 C76.505,5.762 75.493,5.266 74.463,4.808 z" fill="#525252" id="path3"/>
    </g>
    <g id="Middle">
      <g id="mount_(rotate_copied)">
        <path d="M47.681,75.796 L58.319,75.796 L58.319,85.602 L47.681,85.602 z M75.402,46.208 L70.083,36.995 L78.575,32.093 L83.894,41.305 z M35.917,36.995 L30.598,46.208 L22.106,41.305 L27.425,32.093 z" fill="#525252" id="connector"/>
        <path d="M25.09,23.375 L20.686,31.004 C21.459,31.942 21.62,33.293 20.977,34.408 C20.333,35.523 19.082,36.059 17.883,35.857 L13.391,43.641 L29.373,39.359 z M80.91,23.377 L76.627,39.359 L92.609,43.641 L88.205,36.014 C87.006,36.214 85.755,35.677 85.111,34.563 C84.468,33.448 84.629,32.096 85.402,31.158 z M53,80.283 L41.299,91.982 L50.109,91.982 C50.535,90.844 51.623,90.029 52.91,90.029 C54.197,90.029 55.287,90.844 55.713,91.982 L64.699,91.982 z M41.299,91.983 L50.108,91.983 C50.534,90.844 51.623,90.029 52.911,90.029 C54.199,90.029 55.287,90.844 55.713,91.984 L64.699,91.982 L53,80.282 z M13.391,43.641 L29.373,39.359 L25.09,23.377 L20.687,31.005 C21.46,31.943 21.62,33.295 20.977,34.41 C20.333,35.524 19.082,36.06 17.883,35.86 z M76.628,39.358 L92.61,43.642 L88.205,36.012 C87.006,36.213 85.757,35.678 85.113,34.563 C84.47,33.448 84.63,32.097 85.403,31.159 L80.91,23.377 z M92.611,43.642 L88.206,36.013 C87.007,36.214 85.756,35.678 85.113,34.563 C84.469,33.448 84.63,32.097 85.405,31.159 L80.91,23.377 L76.627,39.359 z M64.699,91.982 L53,80.282 L41.301,91.982 L50.108,91.982 C50.534,90.843 51.625,90.028 52.912,90.028 C54.199,90.028 55.289,90.843 55.714,91.982 z M29.372,39.358 L25.091,23.375 L20.686,31.005 C21.459,31.944 21.62,33.293 20.977,34.408 C20.333,35.522 19.083,36.059 17.884,35.858 L13.391,43.641 z" fill="#525252" id="mount"/>
      </g>
      <g id="V">
        <path d="M26.704,42.314 L35.917,36.995 L58.319,75.796 L49.106,81.115 z" fill="#525252" id="left"/>
        <path d="M79.296,42.314 L70.083,36.995 L47.681,75.796 L56.894,81.115 z" fill="#525252" id="right"/>
      </g>
    </g>
  </g>
</svg>
